<svg xmlns="http://www.w3.org/2000/svg" width="5328" height="5328" viewBox="0 0 5328 5328">
  <defs>
    <style>
      .cls-1 {
        fill: #76d6ff;
        fill-rule: evenodd;
      }
    </style>
  </defs>
  <path class="cls-1" d="M2664,327.8c1290.25,0,2336.2,1045.953,2336.2,2336.2S3954.25,5000.2,2664,5000.2,327.8,3954.25,327.8,2664,1373.75,327.8,2664,327.8ZM3663.99,1926.87l-164.45,164.48,69.29,494.49,92.97-92.97a36.431,36.431,0,0,1,51.39,0l66.57,66.53a36.584,36.584,0,0,1,0,51.41l-181.89,181.85,59.47,423.87,102.54-102.55a36.5,36.5,0,0,1,51.39,0l66.56,66.57a36.492,36.492,0,0,1,0,51.35l-191.49,191.49,77.35,551.76c9.28,66.44-13.79,127.11-61.25,174.53l-48.78,48.84L2970.04,2620.8l-464.62,464.62c-84.03,83.97-187.31,159.82-296.35,231.02l85.17,580.13c10.5,71.38-11.34,137.31-62.35,188.28l-28.94,28.95L1901.3,3506.02c-51.19,31.26-100.9,62.19-147.59,93.29,31.07-47.1,62.04-97.28,93.23-149.08L1236.38,3147.2l28.91-28.94c51.01-50.94,116.94-72.81,188.3-62.35l582.02,85.46c69.01-106,142.49-206.19,224.08-287.72l467.34-467.29-1562.6-676.97,48.84-48.84c47.43-47.46,108.13-70.5,174.57-61.18l551.76,77.34,191.49-191.48a36.382,36.382,0,0,1,51.35,0l66.57,66.53a36.437,36.437,0,0,1,0,51.35l-102.55,102.61,423.88,59.43,181.89-181.85a36.437,36.437,0,0,1,51.35,0l66.57,66.56a36.437,36.437,0,0,1,0,51.35l-93,92.97,475.48,66.66,73.2-73.22c30.14-33.91,62.35-68.21,96.52-102.38,249.85-249.94,506.61-398.41,573.28-331.66C4062.42,1420.31,3913.88,1676.97,3663.99,1926.87Z"/>
</svg>
